<?xml version="1.0" encoding="UTF-8"?>
<svg width="113.92mm" height="52.553mm" version="1.1" viewBox="0 0 113.92 52.553" xmlns="http://www.w3.org/2000/svg" xmlns:cc="http://creativecommons.org/ns#" xmlns:dc="http://purl.org/dc/elements/1.1/" xmlns:rdf="http://www.w3.org/1999/02/22-rdf-syntax-ns#">
 <metadata>
  <rdf:RDF>
   <cc:Work rdf:about="">
    <dc:format>image/svg+xml</dc:format>
    <dc:type rdf:resource="http://purl.org/dc/dcmitype/StillImage"/>
    <dc:title/>
   </cc:Work>
  </rdf:RDF>
 </metadata>
 <g transform="translate(-66.263 -125.67)">
  <g transform="translate(-20.694 187.24)">
   <g transform="translate(15.922 -72.515)">
    <g fill-rule="evenodd" stroke-opacity=".67969">
     <path transform="scale(.26458)" d="m366.06 41.361c-32.528 33.105-65.056 66.21-97.584 99.314 32.528 33.105 65.055 66.209 97.584 99.312v-31.123h272.3v-136.38h-272.3z" fill="#004482" stroke-width=".54819"/>
     <path d="m71.034 37.22 14.992 9.4833h82.873v-18.967h-82.873z" fill="#00599c" stroke-width=".10516"/>
     <path d="m170.53 19.627c4.2837 2.5257 8.5674 5.0513 12.851 7.577 0.88113 0.51951 1.5855 1.7698 1.5732 2.7926-0.0593 4.9434-0.1186 9.8867-0.1779 14.83-0.0123 1.0228-0.74632 2.256-1.6395 2.7544-4.3432 2.4236-8.6864 4.8471-13.03 7.2707-0.89322 0.49843-2.3316 0.48134-3.2127-0.03818-4.2837-2.5257-8.5674-5.0513-12.851-7.577-0.88113-0.51951-1.5855-1.7698-1.5732-2.7926 0.0593-4.9434 0.11861-9.8867 0.1779-14.83 0.0123-1.0228 0.74632-2.256 1.6395-2.7544 4.3432-2.4236 8.6864-4.8471 13.03-7.2707 0.89322-0.49843 2.3316-0.48134 3.2127 0.03818z" fill="#659ad2" stroke-width=".14112"/>
     <path d="m169.37 26.604a10.616 10.616 0 0 0-2.6489 0.339 10.616 10.616 0 0 0-7.9546 10.253 10.616 10.616 0 0 0 7.9091 10.288 10.616 10.616 0 0 0 11.954-5.0503l-4.607-2.5978a5.3275 5.3275 0 0 1-4.64 2.7109 5.3275 5.3275 0 0 1-5.3278-5.3278 5.3275 5.3275 0 0 1 5.3278-5.3273 5.3275 5.3275 0 0 1 4.6519 2.7316l4.6183-2.5771a10.616 10.616 0 0 0-9.2826-5.4426z" fill="#fff" stroke-width=".14473"/>
    </g>
    <text x="86.556023" y="42.662197" fill="#ffffff" font-family="sans-serif" font-size="14.52px" letter-spacing="0px" stroke-width=".36299" word-spacing="0px" style="line-height:1.25" xml:space="preserve"><tspan x="86.556023" y="42.662197" fill="#ffffff" font-family="sans-serif" stroke-width=".36299">Backport</tspan></text>
    <path d="m177.18 35.305v1.0547h-1.0547v1.356h1.0547v1.0547h1.356v-1.0547h1.0552v-1.356h-1.0552v-1.0547z" fill="#fff" fill-rule="evenodd" stroke-opacity=".67969" stroke-width=".15185"/>
    <path d="m181.71 35.305v1.0547h-1.0547v1.356h1.0547v1.0547h1.356v-1.0547h1.0552v-1.356h-1.0552v-1.0547z" fill="#fff" fill-rule="evenodd" stroke-opacity=".67969" stroke-width=".15185"/>
   </g>
  </g>
 </g>
</svg>
